<svg xmlns="http://www.w3.org/2000/svg" viewBox="0 0 320 320">
  <!-- Background circle -->
  <circle cx="160" cy="160" r="150" fill="#1a1a2e" />
  
  <!-- Zodiac wheel -->
  <circle cx="160" cy="160" r="140" fill="none" stroke="#f1c40f" stroke-width="2" />
  <circle cx="160" cy="160" r="120" fill="none" stroke="#f1c40f" stroke-width="1" />
  
  <!-- Celestial symbols -->
  <path d="M160 20 L160 300" stroke="#f1c40f" stroke-width="1" opacity="0.5" />
  <path d="M20 160 L300 160" stroke="#f1c40f" stroke-width="1" opacity="0.5" />
  
  <!-- Stars -->
  <g fill="#f1c40f">
    <circle cx="160" cy="60" r="4" />
    <circle cx="260" cy="160" r="4" />
    <circle cx="160" cy="260" r="4" />
    <circle cx="60" cy="160" r="4" />
  </g>
  
  <!-- Moon -->
  <path d="M200 80 A 40 40 0 1 1 160 120 A 30 30 0 1 0 200 80" fill="#3498db" />
  
  <!-- Small decorative stars -->
  <g fill="#f1c40f" opacity="0.7">
    <circle cx="120" cy="100" r="2" />
    <circle cx="220" cy="140" r="2" />
    <circle cx="180" cy="220" r="2" />
    <circle cx="100" cy="180" r="2" />
    <circle cx="140" cy="200" r="2" />
  </g>
  
  <!-- Zodiac symbols (simplified) -->
  <g stroke="#f1c40f" fill="none" stroke-width="1.5">
    <path d="M160 50 L180 70 L140 70 Z" />
    <path d="M250 160 C270 140 270 180 250 160" />
    <path d="M160 250 C140 270 180 270 160 250" />
    <path d="M70 160 C50 140 50 180 70 160" />
  </g>
</svg>