<?xml version="1.0" encoding="UTF-8"?>
<!DOCTYPE svg PUBLIC "-//W3C//DTD SVG 1.1//EN" "http://www.w3.org/Graphics/SVG/1.1/DTD/svg11.dtd">
<!-- Creator: CorelDRAW -->
<svg xmlns="http://www.w3.org/2000/svg" xml:space="preserve" width="6.82666in" height="6.82666in" style="shape-rendering:geometricPrecision; text-rendering:geometricPrecision; image-rendering:optimizeQuality; fill-rule:evenodd; clip-rule:evenodd"
viewBox="0 0 6.82666 6.82666"
 xmlns:xlink="http://www.w3.org/1999/xlink">
 <defs>
  <style type="text/css">
   <![CDATA[
    .fil3 {fill:none}
    .fil2 {fill:#424242}
    .fil0 {fill:#64B5F6}
    .fil1 {fill:#424242;fill-rule:nonzero}
   ]]>
  </style>
 </defs>
 <g id="Layer_x0020_1">
  <metadata id="CorelCorpID_0Corel-Layer"/>
  <g id="_276279424">
   <path id="_276280288" class="fil0" d="M4.48665 2.95185c0.539319,0.686819 0.540028,2.03158 1.29543,2.99699 -0.0959055,0 -4.56146,0.00674409 -4.73751,0.0244921 0.0370512,-0.180024 0.337539,-0.233827 0.630008,-0.24263 0.788299,-0.0200669 0.663512,-0.428921 1.83891,-0.557673 0.276992,-0.030311 0.233902,0.1605 0.500815,0.246677 0.746496,0.140378 0.448929,-1.1463 0.156429,-1.92068l0.315917 -0.547181z"/>
   <g>
    <path id="_276280384" class="fil1" d="M1.86986 2.2898c-0.00751969,-0.0594685 -0.0618346,-0.101583 -0.121303,-0.094063 -0.0594646,0.00752362 -0.101579,0.0618386 -0.0940591,0.121307 0.098189,0.774413 0.347299,1.1656 0.606795,1.31936 0.102693,0.0608504 0.207913,0.0860354 0.308083,0.0836457 0.101012,-0.00240945 0.19548,-0.0328858 0.276217,-0.0831772 0.169374,-0.1055 0.280406,-0.299504 0.265996,-0.505319 -0.00399606,-0.0599409 -0.0558268,-0.105291 -0.115772,-0.101299 -0.0599409,0.00399606 -0.105291,0.0558307 -0.101299,0.115772 0.00865354,0.123657 -0.0597205,0.241268 -0.163846,0.306126 -0.0493937,0.0307677 -0.10637,0.0493937 -0.166402,0.0508268 -0.060878,0.00145276 -0.126374,-0.0147717 -0.192319,-0.0538465 -0.209654,-0.124224 -0.413925,-0.46398 -0.502091,-1.15933z"/>
    <path id="_276280240" class="fil1" d="M2.36157 1.09181c-0.0554764,0.0232677 -0.0815787,0.0871142 -0.058311,0.142587 0.0232677,0.0554724 0.0871102,0.0815787 0.142587,0.058311 0.646484,-0.271417 1.04286,-0.264453 1.25519,-0.145047 0.066685,0.0374961 0.113386,0.086 0.142492,0.139315 0.0289449,0.0530197 0.0413858,0.111764 0.0394409,0.169823 -0.00409843,0.122378 -0.0717047,0.24022 -0.183039,0.294508 -0.054063,0.0263228 -0.0765512,0.0915 -0.0502244,0.145563 0.0263268,0.0540591 0.0915,0.0765512 0.145563,0.0502244 0.185531,-0.0904685 0.298087,-0.283811 0.304772,-0.48348 0.00318504,-0.0951575 -0.0175827,-0.192114 -0.0658307,-0.280492 -0.0480827,-0.0880748 -0.122594,-0.166713 -0.226768,-0.225291 -0.262988,-0.147894 -0.726319,-0.168106 -1.44587,0.13398z"/>
    <path id="_276280216" class="fil2" d="M4.05521 2.33218l0.724728 -0.101642 -0.930469 1.61161 -0.274331 -0.678449c-0.0552559,0.0219921 -0.112909,0.039689 -0.167512,0.0528622 -0.188437,0.0454331 -0.383732,0.0472795 -0.573382,0.0073622 -0.710004,-0.149449 -1.20454,-0.83748 -1.51581,-1.44217l-0.0272087 -0.0528622 0.379449 -0.657228 0.0593819 -0.00287008c0.679311,-0.0327756 1.52243,0.0514882 2.00686,0.591642 0.129417,0.144307 0.225433,0.314307 0.280315,0.50024 0.0159016,0.053878 0.0294016,0.112661 0.0379803,0.171504z"/>
   </g>
  </g>
 </g>
 <rect class="fil3" width="6.82666" height="6.82666"/>
</svg>
