<?xml version="1.0" encoding="UTF-8"?>
<!DOCTYPE svg PUBLIC "-//W3C//DTD SVG 1.1//EN" "http://www.w3.org/Graphics/SVG/1.1/DTD/svg11.dtd">
<!-- Creator: CorelDRAW -->
<svg xmlns="http://www.w3.org/2000/svg" xml:space="preserve" width="6.82666in" height="6.82666in" style="shape-rendering:geometricPrecision; text-rendering:geometricPrecision; image-rendering:optimizeQuality; fill-rule:evenodd; clip-rule:evenodd"
viewBox="0 0 6.82666 6.82666"
 xmlns:xlink="http://www.w3.org/1999/xlink">
 <defs>
  <style type="text/css">
   <![CDATA[
    .fil2 {fill:none}
    .fil1 {fill:#424242}
    .fil0 {fill:#64B5F6}
   ]]>
  </style>
 </defs>
 <g id="Layer_x0020_1">
  <metadata id="CorelCorpID_0Corel-Layer"/>
  <path class="fil0" d="M3.65641 3.83996c-0.000338583,0.0673425 0.00175984,0.13474 0.00488189,0.200776 0.00751181,0.158972 0.0224449,0.318063 0.040811,0.47613 0.0319921,0.275358 0.074878,0.550291 0.123646,0.823173 0.0221811,0.124122 0.0452598,0.248866 0.0712205,0.37228l0.0259685 0.123472 -1.01923 0 0.0259921 -0.123488c0.0260197,-0.123646 0.0491614,-0.248614 0.0713976,-0.372965 0.0487323,-0.272567 0.0915866,-0.547177 0.123555,-0.82222 0.0183819,-0.158118 0.0333228,-0.317268 0.0408228,-0.476295 0.00311417,-0.0660591 0.00520866,-0.133488 0.00485433,-0.200862l0.464748 0 0.0213346 0z"/>
  <g id="_276300664">
   <path id="_276300616" class="fil1" d="M3.65778 3.7333l-0.359531 0 0 -1.0341c0,-0.44198 0.0874646,-0.919646 0.376878,-1.26898 0.219154,-0.264528 0.523929,-0.414799 0.865709,-0.43661 0.111626,-0.00712598 0.224051,-0.000232283 0.334146,0.0193346 0.39026,0.0693583 0.76639,0.302154 0.962374,0.652713 0.15911,0.284598 0.174488,0.601012 0.0675197,0.90685l-0.0239921 0.0685945 -0.677791 0 0.023 -0.121453c0.0370906,-0.195886 0.052311,-0.426929 -0.0115512,-0.619161 -0.0386929,-0.116465 -0.109425,-0.223795 -0.225669,-0.273551 -0.106906,-0.0457638 -0.226146,-0.0314567 -0.332031,0.00962992 -0.158205,0.0613858 -0.297244,0.183929 -0.405185,0.312299 -0.376059,0.447224 -0.53485,1.12339 -0.585543,1.69114l-0.00833071 0.0932992z"/>
   <path id="_276300376" class="fil1" d="M3.16054 3.64c-0.0506929,-0.567748 -0.209484,-1.24391 -0.585543,-1.69114 -0.107937,-0.12837 -0.24698,-0.250913 -0.405181,-0.312299 -0.105886,-0.0410866 -0.225126,-0.0553937 -0.332031,-0.00962992 -0.116244,0.0497559 -0.186976,0.157087 -0.225669,0.273551 -0.0638622,0.192232 -0.0486417,0.423276 -0.0115512,0.619161l0.023 0.121453 -0.677791 0 -0.0239921 -0.0685945c-0.106969,-0.305839 -0.0915906,-0.622252 0.0675197,-0.90685 0.195988,-0.350563 0.572118,-0.583358 0.962382,-0.652713 0.110087,-0.0195669 0.222508,-0.0264606 0.334126,-0.0193386 0.34178,0.021815 0.646559,0.172083 0.865717,0.43661 0.289413,0.349335 0.376878,0.827 0.376878,1.26898l0 1.0341 -0.359531 0 -0.00833071 -0.0932992z"/>
  </g>
 </g>
 <rect class="fil2" width="6.82666" height="6.82666"/>
</svg>
