<?xml version="1.0" encoding="UTF-8"?>
<!DOCTYPE svg PUBLIC "-//W3C//DTD SVG 1.1//EN" "http://www.w3.org/Graphics/SVG/1.1/DTD/svg11.dtd">
<!-- Creator: CorelDRAW -->
<svg xmlns="http://www.w3.org/2000/svg" xml:space="preserve" width="6.82666in" height="6.82666in" style="shape-rendering:geometricPrecision; text-rendering:geometricPrecision; image-rendering:optimizeQuality; fill-rule:evenodd; clip-rule:evenodd"
viewBox="0 0 6.82666 6.82666"
 xmlns:xlink="http://www.w3.org/1999/xlink">
 <defs>
  <style type="text/css">
   <![CDATA[
    .fil2 {fill:none}
    .fil0 {fill:#424242}
    .fil1 {fill:#64B5F6}
   ]]>
  </style>
 </defs>
 <g id="Layer_x0020_1">
  <metadata id="CorelCorpID_0Corel-Layer"/>
  <g id="_276303760">
   <path id="_276303592" class="fil0" d="M4.56919 0.853331c0.363583,0 0.686469,0.177512 0.914902,0.455331 0.23778,0.289193 0.35622,0.663748 0.35622,1.03595 0,0.372205 -0.118441,0.746756 -0.35622,1.03595 -0.228433,0.277823 -0.551315,0.455335 -0.914902,0.455335 -0.363579,0 -0.686469,-0.177516 -0.914894,-0.455335 -0.237783,-0.289197 -0.35622,-0.663744 -0.35622,-1.03595 0,-0.372201 0.118437,-0.746756 0.35622,-1.03595 0.228425,-0.277819 0.551315,-0.455331 0.914894,-0.455331zm0.525134 0.775839c-0.131031,-0.159358 -0.314622,-0.27011 -0.525134,-0.27011 -0.210508,0 -0.394098,0.110752 -0.52513,0.27011 -0.163425,0.198768 -0.240256,0.460465 -0.240256,0.715441 0,0.254988 0.0768307,0.516673 0.24026,0.715445 0.131024,0.159362 0.314618,0.27011 0.525126,0.27011 0.210512,0 0.394102,-0.110748 0.525134,-0.27011 0.163429,-0.198772 0.24026,-0.460457 0.24026,-0.715445 0,-0.25498 -0.0768307,-0.516673 -0.24026,-0.715441z"/>
   <path id="_276303352" class="fil0" d="M3.25016 5.52772c0.192882,-0.163421 0.380772,-0.346661 0.556496,-0.527831 0.375839,-0.387476 0.73422,-0.817417 1.01815,-1.27706 0.254646,-0.412228 0.481,-0.903252 0.510543,-1.3932 0.00835433,-0.13848 0.128366,-0.245256 0.266913,-0.237118 0.138622,0.00814567 0.245626,0.128413 0.237268,0.267075 -0.0324567,0.538449 -0.256756,1.06756 -0.528094,1.52729 -0.305713,0.517972 -0.699925,1.00177 -1.11578,1.43547 -0.19474,0.203091 -0.404102,0.408634 -0.619154,0.59085 -0.105945,0.0897717 -0.266276,0.076374 -0.355957,-0.0296063 -0.0896654,-0.105965 -0.0762795,-0.26615 0.0296063,-0.355866z"/>
   <path id="_276303256" class="fil1" d="M2.25748 5.97333c-0.363583,0 -0.686469,-0.177512 -0.914902,-0.455331 -0.23778,-0.289193 -0.35622,-0.663748 -0.35622,-1.03595 0,-0.372205 0.118441,-0.746756 0.35622,-1.03595 0.228433,-0.277823 0.551315,-0.455335 0.914902,-0.455335 0.363579,0 0.686469,0.177516 0.914894,0.455335 0.237783,0.289197 0.35622,0.663744 0.35622,1.03595 0,0.372201 -0.118437,0.746756 -0.35622,1.03595 -0.228425,0.277819 -0.551315,0.455331 -0.914894,0.455331zm-0.525134 -0.775839c0.131031,0.159358 0.314622,0.27011 0.525134,0.27011 0.210508,0 0.394098,-0.110752 0.52513,-0.27011 0.163425,-0.198768 0.240256,-0.460465 0.240256,-0.715441 0,-0.254988 -0.0768307,-0.516673 -0.24026,-0.715445 -0.131024,-0.159362 -0.314618,-0.27011 -0.525126,-0.27011 -0.210512,0 -0.394102,0.110748 -0.525134,0.27011 -0.163429,0.198772 -0.24026,0.460457 -0.24026,0.715445 0,0.25498 0.0768307,0.516673 0.24026,0.715441z"/>
   <path id="_276303448" class="fil1" d="M3.5765 1.29894c-0.192882,0.163421 -0.380772,0.346661 -0.556496,0.527831 -0.375839,0.387476 -0.73422,0.817417 -1.01815,1.27706 -0.254646,0.412228 -0.481,0.903252 -0.510543,1.3932 -0.00835433,0.13848 -0.128366,0.245256 -0.266913,0.237118 -0.138622,-0.00814567 -0.245626,-0.128413 -0.237268,-0.267075 0.0324567,-0.538449 0.256756,-1.06756 0.528094,-1.52729 0.305713,-0.517972 0.699925,-1.00177 1.11578,-1.43547 0.19474,-0.203091 0.404102,-0.408634 0.619154,-0.59085 0.105945,-0.0897717 0.266276,-0.076374 0.355957,0.0296063 0.0896654,0.105965 0.0762795,0.26615 -0.0296063,0.355866z"/>
  </g>
 </g>
 <rect class="fil2" width="6.82666" height="6.82666"/>
</svg>
