<?xml version="1.0" encoding="UTF-8"?>
<!DOCTYPE svg PUBLIC "-//W3C//DTD SVG 1.1//EN" "http://www.w3.org/Graphics/SVG/1.1/DTD/svg11.dtd">
<!-- Creator: CorelDRAW -->
<svg xmlns="http://www.w3.org/2000/svg" xml:space="preserve" width="6.82666in" height="6.82666in" style="shape-rendering:geometricPrecision; text-rendering:geometricPrecision; image-rendering:optimizeQuality; fill-rule:evenodd; clip-rule:evenodd"
viewBox="0 0 6.82666 6.82666"
 xmlns:xlink="http://www.w3.org/1999/xlink">
 <defs>
  <style type="text/css">
   <![CDATA[
    .fil2 {fill:none}
    .fil0 {fill:#424242}
    .fil1 {fill:#64B5F6;fill-rule:nonzero}
   ]]>
  </style>
 </defs>
 <g id="Layer_x0020_1">
  <metadata id="CorelCorpID_0Corel-Layer"/>
  <path class="fil0" d="M2.63615 2.65859c-0.118823,-0.416173 -0.107866,-0.844315 0.183232,-1.23204 0.704008,-0.937677 2.45852,-0.724827 2.54218,0.637547l0.00304724 0.0999685c-0.0161181,0.626878 -0.211354,0.847028 -0.482902,1.37126l0 0c-0.189531,0.381563 -0.969571,1.98202 -0.268295,2.23831 0.307465,0.112362 0.718543,-0.0977756 0.927173,-0.322807 0.0874291,-0.0942992 0.106374,-0.115933 0.109862,-0.120421 -0.0209134,0.100224 -0.011,0.0830276 -0.0570866,0.159843 -0.202287,0.33715 -0.740898,0.602925 -1.12109,0.427327 -0.763713,-0.352732 -0.175323,-1.84976 0.0549173,-2.37763 0.220311,-0.505122 0.470283,-0.798402 0.462717,-1.36975 -0.0112244,-0.847327 -0.94565,-1.10685 -1.55667,-0.695681 -0.522185,0.35139 -0.439673,0.935268 -0.211819,1.43909 -0.172008,-0.131362 -0.372484,-0.218614 -0.585272,-0.255024zm3.0143 2.67182c0.0015,-0.00192913 0.000141732,-0.000688976 0.000141732,-0.000688976l-0.000141732 0.000688976z"/>
  <path class="fil1" d="M2.40896 2.74598c0.340579,0 0.648949,0.138075 0.872165,0.361291 0.223217,0.223217 0.361291,0.531587 0.361291,0.872169 0,0.340583 -0.138071,0.648949 -0.361291,0.872165 -0.223217,0.223217 -0.531583,0.361291 -0.872165,0.361291 -0.340587,0 -0.648957,-0.138075 -0.872173,-0.361287 -0.223213,-0.223217 -0.361283,-0.531587 -0.361283,-0.872169 0,-0.340587 0.138071,-0.648953 0.361287,-0.872169 0.223217,-0.22322 0.531583,-0.361291 0.872169,-0.361291zm0.553811 0.679646c-0.141717,-0.141717 -0.337524,-0.22937 -0.553811,-0.22937 -0.216295,0 -0.412102,0.0876535 -0.553815,0.22937 -0.141717,0.141717 -0.22937,0.33752 -0.22937,0.553815 0,0.216291 0.0876535,0.412098 0.229366,0.553815 0.141717,0.141713 0.337524,0.22937 0.553819,0.22937 0.216291,0 0.412094,-0.0876575 0.553811,-0.229374 0.141717,-0.141713 0.229374,-0.33752 0.229374,-0.553811 0,-0.216291 -0.0876575,-0.412098 -0.229374,-0.553815z"/>
 </g>
 <rect class="fil2" width="6.82666" height="6.82666"/>
</svg>
