<?xml version="1.0" encoding="UTF-8"?>
<!DOCTYPE svg PUBLIC "-//W3C//DTD SVG 1.1//EN" "http://www.w3.org/Graphics/SVG/1.1/DTD/svg11.dtd">
<!-- Creator: CorelDRAW -->
<svg xmlns="http://www.w3.org/2000/svg" xml:space="preserve" width="6.82666in" height="6.82666in" style="shape-rendering:geometricPrecision; text-rendering:geometricPrecision; image-rendering:optimizeQuality; fill-rule:evenodd; clip-rule:evenodd"
viewBox="0 0 6.82666 6.82666"
 xmlns:xlink="http://www.w3.org/1999/xlink">
 <defs>
  <style type="text/css">
   <![CDATA[
    .fil3 {fill:none}
    .fil1 {fill:#64B5F6}
    .fil0 {fill:#424242;fill-rule:nonzero}
    .fil2 {fill:#64B5F6;fill-rule:nonzero}
   ]]>
  </style>
 </defs>
 <g id="Layer_x0020_1">
  <metadata id="CorelCorpID_0Corel-Layer"/>
  <path class="fil0" d="M5.77169 4.83992c0.0863307,0.0221969 0.174315,-0.0297913 0.196512,-0.116122 0.0221969,-0.0863307 -0.0297913,-0.174315 -0.116122,-0.196512 -0.420197,-0.106823 -0.589976,-0.539209 -0.761177,-0.975205 -0.140181,-0.357004 -0.28124,-0.716043 -0.555571,-0.958055l-0.229606 0.229606c0.229248,0.194949 0.357543,0.521638 0.485047,0.846358 0.20161,0.513445 0.401555,1.02265 0.980917,1.16993zm-1.53906 -2.5486c-0.242012,-0.274327 -0.601051,-0.41539 -0.958051,-0.555567 -0.435996,-0.171201 -0.86839,-0.340984 -0.975205,-0.761177 -0.0221969,-0.0863307 -0.110181,-0.138319 -0.196512,-0.116122 -0.0863307,0.0221969 -0.138319,0.110181 -0.116122,0.196512 0.14728,0.579362 0.656484,0.779307 1.16993,0.980917 0.32472,0.127504 0.65137,0.255839 0.846307,0.485091l0.229654 -0.229654z"/>
  <path class="fil0" d="M5.81361 4.7423c0.0291811,-0.00534252 0.0485157,-0.0333425 0.0431732,-0.0625236 -0.00534252,-0.029185 -0.0333386,-0.0485157 -0.0625236,-0.0431732l-3.46872 0.629311 0 0.109209 3.48807 -0.632823zm-4.25287 -0.241181l0.629315 -3.46872c0.00534252,-0.029185 -0.0139882,-0.0571811 -0.0431732,-0.0625236 -0.0291811,-0.00534252 -0.0571811,0.0139921 -0.0625236,0.0431732l-0.632827 3.48807 0.109209 0z"/>
  <g id="_274019784">
   <polygon id="_274019712" class="fil1" points="5.37331,1.45335 5.37331,2.54945 4.2772,1.45335 "/>
   <path id="_274019808" class="fil2" d="M4.97707 2.00143c0.0419331,-0.0419331 0.0419331,-0.109921 0,-0.151854 -0.0419331,-0.0419331 -0.109917,-0.0419331 -0.15185,0l-2.75817 2.75818c-0.0419331,0.0419331 -0.0419331,0.109921 0,0.151854 0.0419331,0.0419331 0.109921,0.0419331 0.151854,0l2.75817 -2.75818z"/>
   <polygon id="_274019520" class="fil1" points="2.21887,4.60779 2.21887,5.33988 1.58543,5.97333 1.58543,5.24124 0.853331,5.24124 1.48678,4.60779 "/>
  </g>
 </g>
 <rect class="fil3" width="6.82666" height="6.82666"/>
</svg>
