<?xml version="1.0" encoding="UTF-8"?>
<!DOCTYPE svg PUBLIC "-//W3C//DTD SVG 1.1//EN" "http://www.w3.org/Graphics/SVG/1.1/DTD/svg11.dtd">
<!-- Creator: CorelDRAW -->
<svg xmlns="http://www.w3.org/2000/svg" xml:space="preserve" width="6.82666in" height="6.82666in" style="shape-rendering:geometricPrecision; text-rendering:geometricPrecision; image-rendering:optimizeQuality; fill-rule:evenodd; clip-rule:evenodd"
viewBox="0 0 6.82666 6.82666"
 xmlns:xlink="http://www.w3.org/1999/xlink">
 <defs>
  <style type="text/css">
   <![CDATA[
    .fil2 {fill:none}
    .fil1 {fill:#424242}
    .fil0 {fill:#64B5F6}
   ]]>
  </style>
 </defs>
 <g id="Layer_x0020_1">
  <metadata id="CorelCorpID_0Corel-Layer"/>
  <path class="fil0" d="M3.41333 2.83641c0.358441,0 0.699217,0.141197 0.95263,0.39461 0.253413,0.253413 0.39461,0.594189 0.39461,0.95263 0,0.358441 -0.141197,0.699217 -0.39461,0.95263 -0.253413,0.253413 -0.594193,0.394606 -0.95263,0.394606 -0.358437,0 -0.699217,-0.141193 -0.95263,-0.394606 -0.253413,-0.253413 -0.39461,-0.594189 -0.39461,-0.95263 0,-0.358441 0.141197,-0.699217 0.39461,-0.95263 0.253413,-0.253413 0.594189,-0.39461 0.95263,-0.39461zm0.632024 0.715217c-0.168232,-0.168236 -0.394067,-0.261783 -0.632024,-0.261783 -0.237957,0 -0.463791,0.0935472 -0.632024,0.261783 -0.168236,0.168232 -0.261783,0.394071 -0.261783,0.632024 0,0.237957 0.0935472,0.463791 0.261783,0.632024 0.168232,0.168236 0.394067,0.261783 0.632024,0.261783 0.237957,0 0.463791,-0.0935472 0.632024,-0.261783 0.168236,-0.168232 0.261783,-0.394067 0.261783,-0.632024 0,-0.237953 -0.0935472,-0.463791 -0.261783,-0.632024z"/>
  <path class="fil1" d="M0.909717 1.77535c0.0885787,-0.132004 0.226283,-0.275854 0.357154,-0.363488 0.340051,-0.227709 0.634854,-0.105965 0.832512,0.23898l0.00126772 0.002c0.196984,0.310752 0.437764,0.655768 0.713988,0.90148 0.163972,0.145862 0.371102,0.282122 0.598693,0.282122 0.227591,0 0.43472,-0.13626 0.598693,-0.282122 0.276224,-0.245713 0.517004,-0.590728 0.713988,-0.90148l0.00125984 -0.00199213c0.116476,-0.203335 0.293512,-0.379035 0.546102,-0.351854 0.103598,0.0111457 0.200579,0.0553858 0.286417,0.112866 0.132276,0.0885787 0.267138,0.230528 0.357039,0.363327l0.0565 0.0834488 -0.374583 0.253878 -0.0565 -0.0837559c-0.0439685,-0.0649528 -0.111004,-0.138669 -0.172268,-0.186441 -0.0354843,-0.0276693 -0.0899685,-0.0627756 -0.136839,-0.0621496 -0.0551417,0.00073622 -0.094252,0.0599606 -0.117315,0.102799l-0.00344094 0.0063937c-0.207319,0.385047 -0.477799,0.778531 -0.821358,1.05481 -0.251177,0.201988 -0.550028,0.345705 -0.877697,0.345705 -0.327669,0 -0.62652,-0.143717 -0.877697,-0.345705 -0.343559,-0.27628 -0.614039,-0.669764 -0.821358,-1.05481l-0.00344094 -0.0063937c-0.023063,-0.0428386 -0.0621732,-0.102063 -0.117315,-0.102799 -0.105823,-0.00141339 -0.255165,0.168846 -0.309106,0.248591l-0.0565 0.0837559 -0.374583 -0.253878 0.0563858 -0.0832874z"/>
 </g>
 <rect class="fil2" width="6.82666" height="6.82666"/>
</svg>
