<?xml version="1.0" encoding="UTF-8"?>
<!DOCTYPE svg PUBLIC "-//W3C//DTD SVG 1.1//EN" "http://www.w3.org/Graphics/SVG/1.1/DTD/svg11.dtd">
<!-- Creator: CorelDRAW -->
<svg xmlns="http://www.w3.org/2000/svg" xml:space="preserve" width="6.82666in" height="6.82666in" style="shape-rendering:geometricPrecision; text-rendering:geometricPrecision; image-rendering:optimizeQuality; fill-rule:evenodd; clip-rule:evenodd"
viewBox="0 0 6.82666 6.82666"
 xmlns:xlink="http://www.w3.org/1999/xlink">
 <defs>
  <style type="text/css">
   <![CDATA[
    .fil2 {fill:none}
    .fil0 {fill:#424242}
    .fil1 {fill:#64B5F6}
   ]]>
  </style>
 </defs>
 <g id="Layer_x0020_1">
  <metadata id="CorelCorpID_0Corel-Layer"/>
  <polygon class="fil0" points="2.87638,1.52198 3.47622,0.91774 4.28629,1.1104 4.28629,1.62706 "/>
  <rect class="fil0" x="3.67841" y="1.33017" width="0.518845" height="3.11022"/>
  <polygon class="fil0" points="4.19725,4.39522 4.39402,4.67327 3.91155,4.84843 3.15763,5.10239 3.67842,4.39522 "/>
  <polygon class="fil0" points="3.88054,4.70723 3.88054,5.95516 4.37513,5.66962 4.29652,4.61965 "/>
  <polygon class="fil0" points="4.65974,0.8715 4.05987,1.77352 4.14744,2.13257 4.76045,1.24806 "/>
  <path class="fil0" d="M4.19726 4.39522l1.1397 0.11935 0.0612953 -3.23146 -0.707138 -0.0416378 -0.031378 -0.369972 1.17346 0c0,0 -0.140102,2.52647 0.140138,3.54232l-0.437854 0.58676 -1.29106 -0.273024 -0.0471654 -0.332339z"/>
  <g id="_276305680">
   <polygon id="_276306040" class="fil1" points="1.1861,0.892354 0.853331,1.46157 1.72904,1.46157 1.83519,1.06543 "/>
   <rect id="_276305920" class="fil1" x="1.22985" y="1.33017" width="0.518845" height="3.11022"/>
   <polygon id="_276305512" class="fil1" points="1.74869,4.39522 1.94546,4.67327 1.48928,5.04546 1.03309,4.67327 1.22986,4.39522 "/>
  </g>
  <polygon class="fil1" points="1.61737,1.52198 2.2172,0.91774 3.02728,1.1104 2.93824,1.62044 "/>
  <rect class="fil1" x="2.4194" y="1.33017" width="0.518845" height="3.11022"/>
  <polygon class="fil1" points="2.93823,4.39522 3.13501,4.67327 2.67882,5.04546 2.22263,4.67327 2.41941,4.39522 "/>
 </g>
 <rect class="fil2" width="6.82666" height="6.82666"/>
</svg>
